<mxfile host="localhost" agent="Mozilla/5.0 (Macintosh; Intel Mac OS X 10_15_7) AppleWebKit/537.36 (KHTML, like Gecko) Chrome/132.0.0.0 Safari/537.36" version="26.0.2">
  <diagram name="Page-1" id="nBlRyAa-DRhpaPJwEdCl">
    <mxGraphModel dx="430" dy="754" grid="1" gridSize="10" guides="1" tooltips="1" connect="1" arrows="1" fold="1" page="1" pageScale="1" pageWidth="827" pageHeight="1169" math="0" shadow="0">
      <root>
        <mxCell id="0" />
        <mxCell id="1" parent="0" />
        <mxCell id="syBVPaNUtjhPwHKiWa_c-1" value="Actor" style="shape=umlActor;verticalLabelPosition=bottom;verticalAlign=top;html=1;outlineConnect=0;" parent="1" vertex="1">
          <mxGeometry x="60" y="110" width="30" height="60" as="geometry" />
        </mxCell>
        <mxCell id="syBVPaNUtjhPwHKiWa_c-2" value="削除 (移動)" style="rounded=1;whiteSpace=wrap;html=1;" parent="1" vertex="1">
          <mxGeometry x="200" y="50" width="120" height="60" as="geometry" />
        </mxCell>
        <mxCell id="syBVPaNUtjhPwHKiWa_c-3" value="削除ファイルの閲覧&lt;div&gt;- step1: 移動前のパス&lt;/div&gt;&lt;div&gt;- step2: ファイルの先頭内容&lt;/div&gt;" style="rounded=1;whiteSpace=wrap;html=1;align=left;" parent="1" vertex="1">
          <mxGeometry x="200" y="130" width="170" height="60" as="geometry" />
        </mxCell>
        <mxCell id="syBVPaNUtjhPwHKiWa_c-4" value="復元&lt;div&gt;- step1: 単一ファイルの復元&lt;br&gt;&lt;div&gt;- step2: 選択ファイルの一括復元&lt;/div&gt;&lt;/div&gt;" style="rounded=1;whiteSpace=wrap;html=1;align=left;" parent="1" vertex="1">
          <mxGeometry x="200" y="220" width="185" height="50" as="geometry" />
        </mxCell>
        <mxCell id="syBVPaNUtjhPwHKiWa_c-5" value="" style="endArrow=classic;html=1;rounded=0;" parent="1" source="syBVPaNUtjhPwHKiWa_c-1" target="syBVPaNUtjhPwHKiWa_c-2" edge="1">
          <mxGeometry width="50" height="50" relative="1" as="geometry">
            <mxPoint x="310" y="320" as="sourcePoint" />
            <mxPoint x="360" y="270" as="targetPoint" />
          </mxGeometry>
        </mxCell>
        <mxCell id="syBVPaNUtjhPwHKiWa_c-6" value="" style="endArrow=classic;html=1;rounded=0;" parent="1" source="syBVPaNUtjhPwHKiWa_c-1" target="syBVPaNUtjhPwHKiWa_c-3" edge="1">
          <mxGeometry width="50" height="50" relative="1" as="geometry">
            <mxPoint x="100" y="145" as="sourcePoint" />
            <mxPoint x="200" y="111" as="targetPoint" />
          </mxGeometry>
        </mxCell>
        <mxCell id="syBVPaNUtjhPwHKiWa_c-7" value="" style="endArrow=classic;html=1;rounded=0;" parent="1" source="syBVPaNUtjhPwHKiWa_c-1" target="syBVPaNUtjhPwHKiWa_c-4" edge="1">
          <mxGeometry width="50" height="50" relative="1" as="geometry">
            <mxPoint x="100" y="152" as="sourcePoint" />
            <mxPoint x="200" y="169" as="targetPoint" />
          </mxGeometry>
        </mxCell>
        <mxCell id="syBVPaNUtjhPwHKiWa_c-8" value="file" style="swimlane;fontStyle=1;align=center;verticalAlign=top;childLayout=stackLayout;horizontal=1;startSize=26;horizontalStack=0;resizeParent=1;resizeParentMax=0;resizeLast=0;collapsible=1;marginBottom=0;whiteSpace=wrap;html=1;" parent="1" vertex="1">
          <mxGeometry x="200" y="320" width="160" height="112" as="geometry" />
        </mxCell>
        <mxCell id="syBVPaNUtjhPwHKiWa_c-12" value="+ name: string" style="text;strokeColor=none;fillColor=none;align=left;verticalAlign=top;spacingLeft=4;spacingRight=4;overflow=hidden;rotatable=0;points=[[0,0.5],[1,0.5]];portConstraint=eastwest;whiteSpace=wrap;html=1;" parent="syBVPaNUtjhPwHKiWa_c-8" vertex="1">
          <mxGeometry y="26" width="160" height="26" as="geometry" />
        </mxCell>
        <mxCell id="syBVPaNUtjhPwHKiWa_c-9" value="+ path: string" style="text;strokeColor=none;fillColor=none;align=left;verticalAlign=top;spacingLeft=4;spacingRight=4;overflow=hidden;rotatable=0;points=[[0,0.5],[1,0.5]];portConstraint=eastwest;whiteSpace=wrap;html=1;" parent="syBVPaNUtjhPwHKiWa_c-8" vertex="1">
          <mxGeometry y="52" width="160" height="26" as="geometry" />
        </mxCell>
        <mxCell id="4lkQdX4u95DNoRIQkM8W-4" value="+ timestamp: time" style="text;strokeColor=none;fillColor=none;align=left;verticalAlign=top;spacingLeft=4;spacingRight=4;overflow=hidden;rotatable=0;points=[[0,0.5],[1,0.5]];portConstraint=eastwest;whiteSpace=wrap;html=1;" vertex="1" parent="syBVPaNUtjhPwHKiWa_c-8">
          <mxGeometry y="78" width="160" height="26" as="geometry" />
        </mxCell>
        <mxCell id="syBVPaNUtjhPwHKiWa_c-10" value="" style="line;strokeWidth=1;fillColor=none;align=left;verticalAlign=middle;spacingTop=-1;spacingLeft=3;spacingRight=3;rotatable=0;labelPosition=right;points=[];portConstraint=eastwest;strokeColor=inherit;" parent="syBVPaNUtjhPwHKiWa_c-8" vertex="1">
          <mxGeometry y="104" width="160" height="8" as="geometry" />
        </mxCell>
        <mxCell id="syBVPaNUtjhPwHKiWa_c-14" value="inventory" style="swimlane;fontStyle=1;align=center;verticalAlign=top;childLayout=stackLayout;horizontal=1;startSize=26;horizontalStack=0;resizeParent=1;resizeParentMax=0;resizeLast=0;collapsible=1;marginBottom=0;whiteSpace=wrap;html=1;" parent="1" vertex="1">
          <mxGeometry x="440" y="333" width="160" height="86" as="geometry" />
        </mxCell>
        <mxCell id="syBVPaNUtjhPwHKiWa_c-15" value="+ files: []file" style="text;strokeColor=none;fillColor=none;align=left;verticalAlign=top;spacingLeft=4;spacingRight=4;overflow=hidden;rotatable=0;points=[[0,0.5],[1,0.5]];portConstraint=eastwest;whiteSpace=wrap;html=1;" parent="syBVPaNUtjhPwHKiWa_c-14" vertex="1">
          <mxGeometry y="26" width="160" height="26" as="geometry" />
        </mxCell>
        <mxCell id="4lkQdX4u95DNoRIQkM8W-5" value="+ path: string" style="text;strokeColor=none;fillColor=none;align=left;verticalAlign=top;spacingLeft=4;spacingRight=4;overflow=hidden;rotatable=0;points=[[0,0.5],[1,0.5]];portConstraint=eastwest;whiteSpace=wrap;html=1;" vertex="1" parent="syBVPaNUtjhPwHKiWa_c-14">
          <mxGeometry y="52" width="160" height="26" as="geometry" />
        </mxCell>
        <mxCell id="syBVPaNUtjhPwHKiWa_c-17" value="" style="line;strokeWidth=1;fillColor=none;align=left;verticalAlign=middle;spacingTop=-1;spacingLeft=3;spacingRight=3;rotatable=0;labelPosition=right;points=[];portConstraint=eastwest;strokeColor=inherit;" parent="syBVPaNUtjhPwHKiWa_c-14" vertex="1">
          <mxGeometry y="78" width="160" height="8" as="geometry" />
        </mxCell>
        <mxCell id="syBVPaNUtjhPwHKiWa_c-19" value="" style="endArrow=classic;html=1;rounded=0;" parent="1" source="syBVPaNUtjhPwHKiWa_c-8" target="syBVPaNUtjhPwHKiWa_c-14" edge="1">
          <mxGeometry width="50" height="50" relative="1" as="geometry">
            <mxPoint x="370" y="256" as="sourcePoint" />
            <mxPoint x="495" y="318" as="targetPoint" />
          </mxGeometry>
        </mxCell>
        <mxCell id="4lkQdX4u95DNoRIQkM8W-1" value="- 削除したら指定したファイルがそのままゴミ箱に移動される&lt;div&gt;- 名前の重複があれば末尾に `.trash-yyyy-mm-dd-HHMMSS` を付与&lt;/div&gt;" style="shape=note;whiteSpace=wrap;html=1;backgroundOutline=1;fontColor=#000000;darkOpacity=0.05;fillColor=#FFF9B2;strokeColor=none;fillStyle=solid;direction=west;gradientDirection=north;gradientColor=#FFF2A1;shadow=1;size=20;pointerEvents=1;align=left;" vertex="1" parent="1">
          <mxGeometry x="400" y="10" width="370" height="70" as="geometry" />
        </mxCell>
        <mxCell id="4lkQdX4u95DNoRIQkM8W-3" value="" style="endArrow=none;html=1;rounded=0;" edge="1" parent="1" source="syBVPaNUtjhPwHKiWa_c-2" target="4lkQdX4u95DNoRIQkM8W-1">
          <mxGeometry width="50" height="50" relative="1" as="geometry">
            <mxPoint x="410" y="400" as="sourcePoint" />
            <mxPoint x="460" y="350" as="targetPoint" />
          </mxGeometry>
        </mxCell>
      </root>
    </mxGraphModel>
  </diagram>
</mxfile>
